name C:\Users\u0101727\Documents\MyRepositories\upper-imu-dc\OpenSim\subject0\MA\MA_Splines\angle_in_n3_dof3_0.mot
datacolumns 4
datarows 27
range 0.010000 0.270000
endheader 
time	plane_elv	shoulder_elv	axial_rot	
          0.01000000	        -38.88248977	          3.42008115	        -37.11132463	
          0.02000000	         15.98623168	          3.42008115	        -37.11132463	
          0.03000000	         70.85495313	          3.42008115	        -37.11132463	
          0.04000000	        -38.88248977	         47.35717561	        -37.11132463	
          0.05000000	         15.98623168	         47.35717561	        -37.11132463	
          0.06000000	         70.85495313	         47.35717561	        -37.11132463	
          0.07000000	        -38.88248977	         91.29427006	        -37.11132463	
          0.08000000	         15.98623168	         91.29427006	        -37.11132463	
          0.09000000	         70.85495313	         91.29427006	        -37.11132463	
          0.10000000	        -38.88248977	          3.42008115	         13.30510256	
          0.11000000	         15.98623168	          3.42008115	         13.30510256	
          0.12000000	         70.85495313	          3.42008115	         13.30510256	
          0.13000000	        -38.88248977	         47.35717561	         13.30510256	
          0.14000000	         15.98623168	         47.35717561	         13.30510256	
          0.15000000	         70.85495313	         47.35717561	         13.30510256	
          0.16000000	        -38.88248977	         91.29427006	         13.30510256	
          0.17000000	         15.98623168	         91.29427006	         13.30510256	
          0.18000000	         70.85495313	         91.29427006	         13.30510256	
          0.19000000	        -38.88248977	          3.42008115	         63.72152975	
          0.20000000	         15.98623168	          3.42008115	         63.72152975	
          0.21000000	         70.85495313	          3.42008115	         63.72152975	
          0.22000000	        -38.88248977	         47.35717561	         63.72152975	
          0.23000000	         15.98623168	         47.35717561	         63.72152975	
          0.24000000	         70.85495313	         47.35717561	         63.72152975	
          0.25000000	        -38.88248977	         91.29427006	         63.72152975	
          0.26000000	         15.98623168	         91.29427006	         63.72152975	
          0.27000000	         70.85495313	         91.29427006	         63.72152975	
